<?xml version="1.0" standalone="no"?>
<!DOCTYPE svg PUBLIC "-//W3C//DTD SVG 1.1//EN" "http://www.w3.org/Graphics/SVG/1.1/DTD/svg11.dtd" >
<svg xmlns="http://www.w3.org/2000/svg" xmlns:xlink="http://www.w3.org/1999/xlink" version="1.1">
<metadata></metadata>
<defs>
<font id="prabowowregular" horiz-adv-x="1128" >
<font-face units-per-em="2048" ascent="1638" descent="-410" />
<missing-glyph horiz-adv-x="518" />
<glyph horiz-adv-x="0" />
<glyph unicode="&#xd;" horiz-adv-x="681" />
<glyph unicode=" "  horiz-adv-x="518" />
<glyph unicode="&#x09;" horiz-adv-x="518" />
<glyph unicode="&#xa0;" horiz-adv-x="518" />
<glyph unicode="!" horiz-adv-x="518" d="M51 188q-2 25 0 48q18 197 133 290q20 18 2 35q-111 94 -110 258v4v17q8 0 8 20.5t-8 61.5q-14 82 -15 329v60v18q2 115 78 197q86 92 191 92h22q104 0 191 -82q92 -88 92 -197v-444h16v-35v-30.5v-41.5q0 -152 -108 -229q-16 -12 -17 -22q0 -6 19 -21q125 -96 125 -233 q0 -100 -66 -187q-90 -117 -209 -151q-29 -8 -61 -8q-96 0 -191 73q-82 63 -92 178z" />
<glyph unicode="&#x22;" horiz-adv-x="1628" d="M51 940q0 70 35 135q25 49 29 125v10v11q0 156 102 258q111 109 178 108q49 0 60 -8h2h16q137 0 232 -94q94 -98 92 -232q0 -16 -2 -30q-16 -188 -162 -375q-4 -6 -39 -45t-53 -60q-88 -86 -205 -86q-90 0 -168 56q-117 84 -117 227zM834 948q0 66 32 127q29 53 29 125 v10v11q47 209 104 258q125 106 205 106q16 0 31 -6h20q137 0 230 -94q94 -96 94 -232q0 -16 -2 -30q-35 -248 -162 -375q-6 -6 -39 -45q-33 -37 -55 -60q-86 -86 -205 -86h-6q-80 -2 -160 56q-117 84 -116 235z" />
<glyph unicode="#" horiz-adv-x="1832" d="M51 377q0 39 10 78q25 90 96.5 144t174.5 60q29 0 39 29q16 37 16 66q0 35 -22 69q-37 63 -37 135q0 86 50 159t136 106q43 16 70 53q78 107 219 119q113 -2 193.5 -73t99.5 -185q2 -10 4 -16.5t6 -11.5t6 -7t8 -5t9.5 -4t12.5 -4.5t11 -3.5q8 -2 16 -2t16.5 6.5 t11.5 10.5t11 18q43 76 108.5 116t145.5 40q29 0 60 -6q88 -16 148.5 -83t74.5 -159q6 -33 2 -43q-8 -31 -8 -63q0 -57 30 -134q12 -33 13 -71q0 -76 -47 -149.5t-117 -102.5q-49 -20 -57 -70q-2 -12 -13 -39q-16 -43 -16 -75q0 -39 22 -80q29 -55 29 -119q0 -84 -49 -155.5 t-131 -104.5q-49 -18 -80 -47q-82 -72 -188 -72q-86 0 -159 50t-108 138q-8 25 -34.5 40.5t-57.5 15.5q-45 0 -67 -29q-86 -100 -215 -100q-49 0 -97 16q-82 29 -132 98.5t-54 157.5q0 33 -27 49q-63 43 -98 105.5t-35 134.5zM922 516q-2 -20 17 -22t22 -5q35 -8 34 29 q0 14 -7 18.5t-20.5 4.5t-18.5 2t-9 2q-16 0 -18 -29z" />
<glyph unicode="$" horiz-adv-x="1175" d="M51 901q0 90 44 174t120 139q43 31 49 80q12 100 82 172t164 82q21 2 39 2q94 0 164.5 -51t105.5 -147q12 -29 37 -45q133 -90 133 -234q0 -51 -18 -104q-12 -35 14 -56q66 -47 103.5 -127.5t37.5 -169.5q0 -98 -49 -184t-149 -141q-31 -18 -33 -55q-2 -113 -72.5 -191 t-181.5 -92q-16 -2 -33 -2q-90 0 -165.5 58.5t-102.5 152.5q-10 35 -43 47q-88 35 -133 106.5t-45 169.5q0 63 31 117q18 33 -7 57q-47 55 -69.5 117t-22.5 125z" />
<glyph unicode="%" horiz-adv-x="1566" d="M51 938q0 33 6 59q23 104 99.5 172t175.5 70h14q121 0 203 -58.5t113 -166.5q6 -23 12 -47q86 180 94 196q33 70 45 90q41 61 104.5 96t135.5 35q57 0 110 -20q80 -35 126 -106.5t46 -157.5q0 -31 -6 -64q-6 -29 -17.5 -60.5t-21.5 -53t-27.5 -58.5t-25.5 -55 q-2 -2 -115 -236q66 14 104 14.5t70 -12.5q4 -2 9.5 -3t7.5 -3q170 -61 196 -250q8 -53 9 -94q0 -170 -132 -256q-70 -45 -165 -45q-104 0 -190.5 56.5t-115.5 160.5q-8 27 -18 35q-121 -186 -139 -215q-72 -113 -191 -143q-33 -8 -65 -8q-115 0 -199 83.5t-84 198.5 q0 25 4 49q14 78 74 172q33 49 145 230q12 20 11 35q-25 -8 -56 -9q-25 0 -88 13q-96 18 -161.5 80.5t-81.5 156.5q-14 80 -15 119z" />
<glyph unicode="&#x26;" horiz-adv-x="1429" d="M51 543q0 152 131 293q20 25 21 43q0 12 -4 26q-33 86 -33 168q0 160 109.5 266.5t291.5 114.5h31q152 0 251 -75.5t136 -219.5q6 -27 8 -63q14 2 29 2q8 0 14 -2q86 -4 155 -54.5t99 -132.5q16 -47 17 -98q0 -123 -101 -215q-6 -6 -21.5 -15.5t-25.5 -18.5t-10 -19.5 t10 -19.5t30.5 -19t24.5 -12q166 -104 166 -271q0 -115 -84 -198.5t-196 -83.5q-70 0 -133 34q-47 27 -136.5 72t-109.5 55q-35 -4 -74 -4q-31 0 -61 4q-154 16 -203 33q-246 84 -311 289q-20 61 -21 121z" />
<glyph unicode="'" horiz-adv-x="845" d="M51 940q0 70 35 135q29 55 29 125v10.5v10.5q0 156 102 257t238 101h2h16q137 0 230.5 -95t93.5 -231q0 -16 -2 -30q-18 -217 -162 -375q-4 -6 -39 -45t-53 -60q-88 -86 -205 -86q-90 0 -168 56q-117 84 -117 227z" />
<glyph unicode="(" horiz-adv-x="843" d="M51 545v30q12 211 42 373t97 307q39 82 86 144q94 121 234 121h2q82 0 154 -47q61 -39 95 -101.5t34 -134.5q0 -76 -41 -147q-82 -143 -111 -328q-2 -18 -4 -40t-5 -47.5t-5 -39.5t-2 -29q0 -70 45 -121q70 -82 69 -192q0 -186 -168 -264q-55 -25 -116 -25 q-115 0 -195 82q-100 104 -155.5 217t-55.5 242z" />
<glyph unicode=")" horiz-adv-x="837" d="M51 295q0 45 15 90q16 51 57 113q94 135 94 327q0 25 -2 52q-4 80 -59 262q-12 43 -13 84q0 119 109 209q78 65 168 67h4q66 0 137 -35q90 -43 141 -159q84 -186 84 -426v-56q2 -29 2 -59q0 -328 -206 -617q-47 -66 -108.5 -100.5t-135.5 -34.5q-12 0 -25 2 q-113 8 -187.5 90t-74.5 191z" />
<glyph unicode="*" horiz-adv-x="1245" d="M51 946q0 88 54.5 162t148.5 106q23 6 31 17.5t8 34.5q8 106 76.5 182t167.5 86q23 2 43 2q98 0 170.5 -55.5t101.5 -151.5q10 -33 24.5 -46t49.5 -13q117 -4 193.5 -87t76.5 -196q0 -70 -33 -135q-29 -59 -28 -117v-12q2 -4 2 -10q0 -113 -85 -195t-200 -82h-2 q-68 2 -111 25q-14 8 -24 8q-16 0 -37 -25q-94 -115 -229 -114q-74 0 -140 37q-68 37 -106.5 103.5t-38.5 141.5q0 29 8 60q6 31 -20 55q-100 92 -101 219z" />
<glyph unicode="+" horiz-adv-x="1261" d="M51 768q0 96 61.5 174t159.5 98q31 8 42.5 19.5t11.5 38.5v16q-2 12 -2 25q0 106 75.5 188t182.5 90q14 2 28 2q113 -2 195 -75.5t90 -188.5q2 -41 18.5 -56.5t55.5 -21.5q109 -18 176 -98t67 -186q0 -115 -74.5 -195t-191.5 -86q-16 -2 -23.5 -8t-9.5 -25 q-10 -113 -78.5 -184.5t-179.5 -87.5q-14 -2 -30 -2q-94 0 -174 69.5t-101 171.5q-4 20 -11 28.5t-28 10.5q-70 4 -127 40t-92 93.5t-39 124.5q-2 12 -2 25z" />
<glyph unicode="," horiz-adv-x="845" d="M51 53q0 70 35 135q29 55 29 125v9.5v9.5q0 158 102 259t238 101h2h16q137 0 230.5 -95t93.5 -230q0 -16 -2 -31q-18 -217 -162 -375q-4 -6 -39 -45t-53 -59q-88 -88 -205 -88q-90 0 -168 57q-117 84 -117 227z" />
<glyph unicode="-" d="M51 748q0 14 2 30q10 106 96 179t197 73h23q33 -2 419 -14q94 -2 165 -51.5t106 -130.5q18 -49 18 -101q0 -100 -65.5 -181t-163.5 -99q-6 0 -121 -15q-74 10 -211 11.5t-201 7.5q-117 12 -190.5 94t-73.5 197z" />
<glyph unicode="." horiz-adv-x="727" d="M51 426q0 88 45 159.5t125 108.5q53 25 113 25h4h16h21q127 0 210 -85t93 -212v-27q0 -121 -75 -214t-187 -111q-12 -2 -19 -4h-26q-102 0 -188.5 75.5t-119.5 196.5q-12 45 -12 88z" />
<glyph unicode="/" horiz-adv-x="1218" d="M51 92q0 25 4 49q14 78 76 172q35 55 152.5 268.5t216.5 397.5l100 184q33 70 45 90q41 61 104.5 96t135.5 35q57 0 110 -20q80 -35 127 -106.5t47 -157.5q0 -31 -8 -64q-6 -29 -17 -60.5t-21.5 -53t-28 -58.5t-25.5 -55q-61 -135 -105 -225t-89.5 -170t-73 -124 t-95 -147.5t-116.5 -181.5q-72 -113 -189 -143q-33 -8 -67 -8q-113 0 -198 83.5t-85 198.5z" />
<glyph unicode="0" horiz-adv-x="1294" d="M51 748q0 287 166 512q84 117 209 174q10 6 68.5 40.5t95.5 43.5q68 16 131 16h4q209 -2 360 -184q160 -193 160 -396q0 -25 -2 -49v-31q0 -264 -174 -458q-20 -20 -54 -62.5l-50 -62.5q-74 -84 -162 -124t-187 -40q-82 0 -174 27q-18 4 -90 30q-215 76 -266 283 q-35 147 -35 281zM643 829q0 -6 2 -14q27 31 27 59q0 11 -4 23q-25 -35 -25 -68z" />
<glyph unicode="1" horiz-adv-x="864" d="M51 1116v23q12 180 187 247q162 63 202 72q35 8 68 8h4q133 0 227 -123q70 -90 70 -206v-123v-127v-137q2 -39 2 -113v-12.5v-14.5q0 -123 4 -192v-17q0 -94 -58.5 -168.5t-148.5 -99.5q-39 -10 -78 -10q-80 0 -147.5 41t-103.5 115q-37 74 -37 151q-2 72 -5.5 205 t-3.5 188q0 29 -26 43q-156 84 -156 250z" />
<glyph unicode="2" horiz-adv-x="1054" d="M51 387q0 57 23 123q74 225 200 367q12 14 11.5 23t-19.5 22q-70 43 -106.5 107.5t-36.5 135.5q0 129 104 221q133 119 310 119q152 0 277.5 -87.5t172.5 -239.5q16 -57 17 -131v-13v-14q0 -172 -134 -338q-16 -20 -16 -31q0 -14 20 -30q100 -84 101 -215q0 -57 -23 -111 q-33 -80 -105.5 -128t-158.5 -48h-22q-14 2 -31 2q-23 0 -50.5 -3t-47 -7.5t-51 -10.5t-46.5 -10q-35 -6 -67 -6q-137 0 -248 119q-74 78 -74 184z" />
<glyph unicode="3" horiz-adv-x="1120" d="M51 481q0 86 48 158t130 104q31 12 31 29q0 10 -8 27q-23 45 -23 73v7q2 6 2 12q0 53 -61 113q-78 80 -78 184q0 47 17 96q55 170 221 191q135 16 215 16q68 0 129 -10q121 -20 192.5 -100.5t71.5 -190.5q0 -51 -16 -103q-8 -33 14 -59q133 -150 133 -348q0 -41 -6 -86 q-16 -129 -128 -238.5t-251 -136.5q-123 -23 -283 -26q-88 2 -112 8q-96 18 -161 85.5t-75 164.5q-2 14 -2 30z" />
<glyph unicode="4" horiz-adv-x="1146" d="M51 778v25q0 121 80 217q137 164 297 387q88 121 219 123q27 0 51 -4q197 -35 242 -232q8 -35 23 -45q135 -90 135 -272v-14v-23q-2 -51 -7.5 -171t-10.5 -208t-17 -170q-14 -117 -94 -187.5t-195 -70.5h-18q-109 6 -183.5 88t-76.5 197q-2 68 -13.5 80t-81.5 14h-26h-5 h-5q-33 0 -52 2q-70 8 -127 44t-93 94.5t-42 125.5z" />
<glyph unicode="5" horiz-adv-x="1247" d="M51 338q0 170 152 250q29 14 28 26q0 10 -18 29q-78 82 -78 209q0 49 12 119q31 180 43 303q10 109 86 178.5t187 81.5q28 4 59 4q49 0 138.5 -12.5t107.5 -14.5t58 -3t71 -5t57 -12q80 -31 105 -45q139 -88 139 -240q0 -180 -162 -258q-29 -14 -28 -26q0 -10 14 -31 q92 -129 92 -307q0 -207 -117 -348q-94 -113 -235 -142q-23 -4 -86.5 -16t-95 -18.5t-84 -13.5t-95.5 -11q-131 14 -202 55q-72 41 -110 104.5t-38 143.5z" />
<glyph unicode="6" horiz-adv-x="1116" d="M51 645q0 98 27 207q49 203 192 410q94 139 234 221q80 47 164 47h2q104 0 182 -69.5t96 -184.5q2 -20 2 -41q0 -119 -110 -215q-12 -10 -25.5 -20.5t-33 -26t-31.5 -25.5q201 -37 278 -213q39 -90 39 -174q0 -121 -80 -229q-174 -238 -452 -238q-51 0 -107 8 q-168 27 -270 185q-106 164 -107 358z" />
<glyph unicode="7" horiz-adv-x="1040" d="M51 1214q0 119 82 205t201 86h8q37 0 104.5 -12t98.5 -14q14 0 50 -3t56 -3q147 -4 243.5 -102.5t96.5 -233.5q0 -94 -51 -181q-29 -51 -57.5 -115.5t-43 -104.5t-43 -127t-36.5 -111q-8 -23 -21.5 -69t-21.5 -71q-33 -94 -107.5 -149t-165.5 -55q-45 0 -88 12 q-92 31 -146 107.5t-54 172.5q0 45 14 91q43 141 113 350q8 18 8 31q0 23 -37 34q-90 29 -146.5 101.5t-56.5 160.5z" />
<glyph unicode="8" horiz-adv-x="1198" d="M51 543q0 152 131 293q20 25 21 43q0 12 -4 26q-33 86 -33 168q0 160 109.5 266.5t291.5 114.5h31q152 0 251 -75.5t136 -219.5q8 -33 8 -112v-27q0 -53 -10 -82q-8 -23 14 -41q125 -106 148 -276q2 -23 2 -46q0 -80 -35 -167q-59 -145 -183 -228.5t-282 -83.5 q-31 0 -61 4q-154 16 -203 33q-246 84 -311 289q-20 61 -21 121z" />
<glyph unicode="9" horiz-adv-x="1167" d="M51 424q0 154 142 238q18 12 19 22t-11 25q-100 123 -101 278q0 190 136.5 350t318.5 181q82 8 113 8h4h18q74 -4 101 -23q59 -41 98 -70.5t82 -74.5t68.5 -98.5t37.5 -114.5q37 -221 39 -352v-23q0 -119 -39 -270q-47 -180 -235 -289q-164 -94 -359 -94q-109 0 -225 26 q-88 23 -140 84.5t-65 153.5q-2 23 -2 43z" />
<glyph unicode=":" horiz-adv-x="770" d="M51 367q0 127 109 247q2 2 10 8.5t11 9.5t1 10t-12 15q-57 47 -83 107.5t-26 130.5q0 55 15 123q29 133 141 215q82 61 166 61h4q59 0 119 -28q176 -92 213 -312q-6 -168 -109 -276q-18 -16 -18 -28.5t16 -31.5q96 -106 97 -229q0 -63 -25 -129q-74 -199 -293 -227 q-14 -2 -31 -2q-92 0 -172 61.5t-112 159.5q-20 59 -21 115z" />
<glyph unicode=";" horiz-adv-x="845" d="M51 53q0 70 35 135q29 55 29 125v9.5v9.5q0 111 51 194.5t135 126.5q-113 78 -151 224q-12 45 -13 88q0 88 45 159.5t125 108.5q53 25 113 24h4h16h21q127 0 210 -85t93 -211v-27q0 -84 -38 -158t-103 -119q80 -41 127 -118.5t47 -171.5q0 -16 -2 -31q-18 -217 -162 -375 q-4 -6 -39 -45t-53 -59q-88 -88 -205 -88q-90 0 -168 57q-117 84 -117 227z" />
<glyph unicode="&#x3c;" horiz-adv-x="1189" d="M51 492v18q0 186 152 285q10 6 100 53q115 57 277 176q102 72 200 74q8 0 17 -2q84 -4 153.5 -54.5t98.5 -132.5q16 -47 16 -98q0 -123 -98 -215q-6 -6 -22.5 -15.5t-26 -18.5t-9.5 -19.5t9.5 -19.5t30 -19t26.5 -12q164 -104 164 -271q0 -115 -84 -198.5t-197 -83.5 q-68 0 -131 34q-27 14 -185.5 96.5t-238.5 133.5q-35 23 -70 39q-176 80 -182 250z" />
<glyph unicode="=" horiz-adv-x="1284" d="M51 545q0 78 31 144.5t82 105.5q-51 37 -82 102.5t-31 144.5q0 119 65.5 203t157.5 84q8 0 19 -2q35 -4 76 -4q4 0 200 12q236 14 289 15h6q84 0 156 -11q90 -12 152.5 -96t62.5 -190v-25q-12 -156 -119 -225q53 -41 86 -107.5t33 -140.5v-25q-10 -115 -75.5 -188.5 t-160.5 -73.5q-10 0 -20 2q-61 6 -133 6q-45 0 -324 -16q-94 -4 -149 -4q-61 0 -113 4q-90 8 -149.5 90t-59.5 195z" />
<glyph unicode="&#x3e;" horiz-adv-x="1167" d="M51 905q0 39 10 80q25 96 101 152.5t178 56.5h12q98 0 162 -61q27 -25 55.5 -46.5t65.5 -42t60.5 -33t70.5 -34t63 -29.5q12 -4 55.5 -21.5t65.5 -31.5q74 -47 121 -125t47 -164q0 -141 -127 -239q-51 -39 -159.5 -134.5t-169.5 -142.5q-96 -72 -162 -94q-47 -14 -97 -14 q-76 0 -141 36.5t-104 102t-39 143.5q0 129 98 215q23 18 82 60q27 16 0 32q-84 51 -106 72q-68 59 -105 123.5t-37 138.5z" />
<glyph unicode="?" horiz-adv-x="1085" d="M51 1174q0 121 88 210q123 125 326 166q94 18 162 19q176 0 284.5 -102.5t120.5 -278.5q0 -20 2 -62q2 -18 2 -36q0 -256 -213 -398q-35 -23 -51 -30q-102 -51 -137 -113q-2 -4 -7 -9t-7 -8q-6 -8 -34 -25.5t-28 -29.5v-2q0 -10 11.5 -20.5t27.5 -21.5t25 -19 q98 -98 98 -219q0 -98 -63.5 -178t-159.5 -107q-37 -10 -74 -10q-80 0 -150.5 45t-113.5 125t-43 159q0 143 133 238q16 12 17 18.5t-15 20.5q-117 98 -117 227q0 72 39 154q8 18 8 31q0 18 -22 36q-53 41 -81 99.5t-28 120.5z" />
<glyph unicode="@" horiz-adv-x="1474" d="M51 711q0 250 154 436q78 115 141 168q139 121 402 153q29 4 55 5q156 0 287 -94.5t182 -217.5q14 -33 41 -55q113 -92 112 -229q0 -80 -41 -154q-66 -115 -129 -197q-98 -127 -241 -127q-78 0 -148 43q-63 41 -99 104.5t-36 137.5q0 76 37 147q2 4 7 10.5t8 11.5t2 11 t-7 13q-10 10 -22 10q-14 0 -37 -15q-16 -10 -33 -30q-57 -70 -57 -150q0 -68 41 -133q47 -74 47 -164q0 -109 -62 -176q-94 -102 -223 -102q-72 0 -137 37q-21 12 -41 26q-106 78 -148 203q-55 178 -55 328z" />
<glyph unicode="A" horiz-adv-x="1263" d="M41 373v22q0 20 2 41t9 46.5t10.5 37.5t14.5 45l13 39q43 135 147.5 383t120.5 291q37 94 48 113q84 145 272 145q74 0 138 -46t99 -128q207 -469 295 -797q14 -51 15 -102q0 -106 -60.5 -183t-165.5 -100q-33 -6 -63 -6q-127 0 -219 115q-27 35 -64 35q-45 0 -65 -45 q-39 -80 -107.5 -124t-152.5 -44q-25 0 -49 4q-96 16 -163 88.5t-75 169.5z" />
<glyph unicode="B" horiz-adv-x="1028" d="M51 1237q0 117 82 200t215 83h2q14 0 29 -2h18q72 0 166 -19q127 -27 204 -123t77 -215q0 -117 -74 -215q-16 -23 -16 -35q0 -14 30 -34q82 -51 137.5 -142.5t55.5 -197.5q0 -72 -27 -142q-66 -180 -284 -233q-55 -14 -109 -15q-68 -2 -164 -22q-20 -4 -43 -4 q-100 0 -183 79t-89 183q-18 362 -19 618v29v33q0 86 -6 139q-2 16 -2 35z" />
<glyph unicode="C" horiz-adv-x="1046" d="M37 723q0 166 37 270q125 352 461 471q66 23 133 23q53 0 104 -14q100 -27 159.5 -103t59.5 -176q0 -6 -2 -12q-4 -100 -69.5 -174t-171.5 -95q-63 -12 -100.5 -56t-37.5 -105q0 -20 4 -41q0 -6 3.5 -10.5t7.5 -5.5t7 -1t8 1t7 1q31 4 55 4q45 0 84 -12 q94 -29 152.5 -103.5t58.5 -170.5v-4q-2 -98 -61 -173t-158 -100q-72 -18 -141 -18h-14q-195 2 -322 74q-256 147 -262 440q-2 61 -2 90z" />
<glyph unicode="D" horiz-adv-x="1052" d="M51 446q0 84 12 232q4 43 5.5 91t1.5 102.5t2 82.5v61v56q0 35 -2 62v18q0 154 96 238t244 84h2q20 0 39 -3q203 -16 364 -182q201 -203 201 -444v-29q-4 -84 -31 -149q-129 -309 -377 -467q-39 -25 -65 -49q-90 -84 -195 -84q-55 0 -115 24q-164 68 -178 264 q-4 43 -4 92z" />
<glyph unicode="E" horiz-adv-x="980" d="M51 1178q0 111 104.5 226.5t206.5 119.5q45 2 82 2h7q135 0 233 -23q190 -45 219 -235q4 -27 4 -49q0 -154 -143 -240q-16 -10 -19.5 -19.5t5.5 -27.5q43 -70 43 -144q0 -66 -35 -131q-14 -29 12 -45q78 -43 120 -108.5t42 -138.5q0 -37 -10 -74q-27 -100 -104 -157.5 t-189 -59.5q-227 -4 -248 -4h-14q-104 0 -184.5 70.5t-94.5 176.5q-18 129 -18 246v31v63q0 102 -9.5 272.5t-9.5 248.5z" />
<glyph unicode="F" horiz-adv-x="1089" d="M51 690q0 254 10 447v16q0 16 -2 49t-2 49q0 41 9 72q31 98 105.5 155.5t168.5 57.5q49 0 98 -16q33 -12 72 -13h6q94 2 148 2h88q115 -4 193.5 -73.5t90.5 -178.5q4 -18 4 -34q0 -98 -60 -173t-161 -104q-4 0 -63 -16q-2 -6 0 -12.5t7 -13.5t7 -9q31 -63 31 -133 q0 -74 -36 -138.5t-101 -103.5q-35 -20 -35 -57v-4v-56q0 -37 -2 -71q-6 -123 -87 -203t-198 -80h-2q-119 2 -202 86t-85 205q-2 250 -2 350z" />
<glyph unicode="G" horiz-adv-x="1302" d="M35 791q0 354 366 628q105 80 238 80q25 0 47 -2q102 -10 172 -83t84 -179q2 -12 2 -25q0 -80 -53 -154.5t-133 -107.5q-154 -61 -154 -221q0 -8 2 -18q0 -25 8 -43q14 -39 41 -39h4q12 2 16.5 8t3.5 19.5t-1 15.5q18 117 98 188.5t191 71.5h18q113 -6 187.5 -88 t78.5 -205q2 -23 2 -47q0 -86 -12 -191q-12 -113 -89 -187.5t-191 -80.5q-33 -2 -66 -22q-113 -70 -266 -70q-203 0 -338 125q-193 178 -238 358q-16 72 -16 176v43q-2 25 -2 50z" />
<glyph unicode="H" horiz-adv-x="1353" d="M51 1208q0 106 65.5 188.5t168.5 100.5q27 4 53 4q104 0 182 -67.5t101 -178.5q10 -51 12 -217q0 -20 19.5 -37.5t41.5 -17.5q10 0 19 6q6 2 8 6t1 13l-1 8q6 117 10 213q4 117 81 196.5t189 83.5h9h2q115 0 194.5 -73.5t91.5 -188.5q6 -45 7 -76q0 -25 -5 -47 q-10 -117 -10 -307v-62v-63q0 -217 -8 -334q-8 -125 -88 -207.5t-197 -82.5h-4q-119 4 -198.5 87t-79.5 207q-2 27 -12.5 38.5t-34.5 13.5q-27 2 -27 -23v-18q0 -51 -8 -90q-23 -96 -101.5 -160t-173.5 -64q-14 0 -26 2q-111 10 -184.5 89t-73.5 188q0 96 -5.5 290.5 t-5.5 295.5v102v14q0 57 -8 121q-4 23 -4 47z" />
<glyph unicode="I" horiz-adv-x="679" d="M51 336v125q0 104 5 313t5 313q0 16 -2 50t-2 53q0 39 9 67q31 100 104.5 158t169.5 60q20 0 41 -2q104 -12 174 -91t74 -190q2 -49 2 -115q0 -31 -1 -99.5t-1 -109.5q2 -45 2 -98q0 -76 -5 -230.5t-8 -224.5q0 -109 -69.5 -186.5t-177.5 -91.5q-18 -4 -39 -4 q-88 0 -163 54t-103 140q-12 37 -15 109z" />
<glyph unicode="J" horiz-adv-x="851" d="M27 295v24q0 82 42 150t115 102q43 20 43 68v2q-2 82 -2 186q0 49 1 146.5t1 144.5q0 33 -2 62q0 84 31 147q37 76 105.5 120t152.5 44q26 0 53 -4q98 -18 164 -95t70 -182q2 -27 2 -63v-51v-52q-6 -78 -6 -204v-40v-42q0 -193 -13 -303q-35 -315 -313 -404 q-68 -20 -131 -20q-59 0 -115 16q-84 27 -137 94.5t-61 153.5z" />
<glyph unicode="K" horiz-adv-x="1304" d="M51 367q0 76 12 206q4 53 7 86q0 78 3 285t5 320q2 119 74.5 199.5t185.5 95.5q15 2 31 2q92 0 167.5 -60.5t104.5 -159.5q2 -2 3 -11t4 -13t9 -4q6 -2 10.5 1t8.5 10t6 9q6 6 24.5 28.5t30.5 33.5q88 86 205 86q96 0 174 -60q109 -86 109 -223q0 -78 -41 -149 q-33 -57 -137 -177q-16 -18 -17 -36q0 -14 10 -35q20 -45 92 -158t99 -182q24 -61 24 -118q0 -68 -30 -128q-78 -150 -242 -158h-16q-164 0 -250 152q-8 12 -23.5 43t-30 54.5t-32.5 43.5q-10 -88 -15 -104q-37 -137 -161 -197q-53 -24 -109 -24h-4q-12 0 -25 2 q-72 6 -131 44t-94 99t-39 135q-2 29 -2 62z" />
<glyph unicode="L" horiz-adv-x="1005" d="M51 360v54q0 219 15 417q2 31 2 68q0 41 -4.5 125t-4.5 127v45q4 80 9 94q20 100 99 164t177 64q13 0 27 -2q106 -10 180 -88t78 -187q0 -20 3 -77.5t5 -88.5q2 -80 2 -145q0 -129 -8 -244q-4 -29 26 -29q35 -2 78 -8q102 -18 172 -98t70 -182v-7q-4 -111 -79 -190.5 t-183 -85.5q-33 -2 -297 -33q-23 -2 -45 -2q-168 0 -279 160q-43 59 -43 149z" />
<glyph unicode="M" horiz-adv-x="1527" d="M51 817q0 61 2 264q0 147 85 232.5t235 87.5h10q152 0 258 -94q14 -12 60.5 -51t70 -62t45.5 -2q84 74 121 102q111 78 221 78q45 0 88 -10q98 -27 155.5 -105.5t57.5 -181.5v-6q-2 -70 -2 -147q0 -145 4 -381q2 -23 9.5 -67t7.5 -66v-11q-6 -113 -79 -191.5t-179 -86.5 q-12 -2 -25 -2q-106 0 -185 66.5t-100 172.5q0 2 -28 174q-84 -31 -105 -36q-33 -8 -53 -9q-23 0 -43 9q-14 6 -25 6q-23 0 -22 -31q0 -6 2 -14q2 -16 2 -37q0 -16 -2 -51q-6 -113 -84 -191t-191 -84h-12q-102 0 -184 72t-94 178q-16 127 -19 254q-2 98 -2 221z" />
<glyph unicode="N" horiz-adv-x="1415" d="M51 1120q0 66 17 117q29 94 105.5 148.5t174.5 54.5h6q23 0 47 -4q207 -31 344 -207l52 -62q8 2 12 8.5t6 15.5t4 11q33 78 107.5 129t152.5 51q16 0 33 -2q115 -20 183.5 -97t68.5 -183q0 -45 1 -136.5t1 -136.5q0 -233 -18 -389q0 -12 -4.5 -41.5t-6.5 -44.5 q-12 -125 -93 -199.5t-193 -74.5q-70 0 -140 33q-119 53 -198 180q-6 10 -72 119q-2 -20 -4 -51t-5 -53.5t-7 -43.5q-29 -98 -105 -156.5t-174 -58.5h-29q-102 10 -175.5 86t-78.5 182q-4 84 -4 158q0 96 7 184q4 47 4 101q0 61 -15 270q-4 63 -4 92z" />
<glyph unicode="O" horiz-adv-x="1247" d="M41 801q0 14 2 28v15q0 162 78 283.5t221 220.5q70 47 170 51q24 2 49 2q250 -2 447 -121q198 -122 198 -363q0 -41 -4 -79q-55 -440 -389 -660q-88 -57 -176 -57q-45 0 -90 14q-387 117 -481 518q-25 104 -25 148z" />
<glyph unicode="P" horiz-adv-x="1093" d="M51 774q0 45 2 86v98.5v90.5v108q2 88 53.5 157.5t135.5 102.5q114 45 237 45h6q111 0 234 -35q154 -43 244 -162.5t98 -283.5v-27q0 -178 -99.5 -308t-275.5 -185q-49 -16 -49 -58v-10q2 -20 2 -41q0 -47 -10 -90q-20 -96 -94 -158.5t-170 -64.5h-11q-96 0 -170.5 54 t-103.5 147q-18 55 -19 88q0 6 1 18t1 19q0 72 -6 209t-6 200z" />
<glyph unicode="Q" horiz-adv-x="1202" d="M39 659q0 307 237 558q164 172 365 172h2q84 0 164 -31q158 -63 252 -200.5t94 -307.5v-21q0 -123 -76 -268q-14 -27 -14 -49q0 -16 10 -37q23 -51 23 -106q0 -66 -31 -124.5t-74 -92.5q-82 -68 -178 -68q-82 0 -160 49q-29 18 -61 19h-1h-3q-217 0 -420 174 q-117 104 -127 288q-2 23 -2 45z" />
<glyph unicode="R" horiz-adv-x="1146" d="M51 739q0 45 2 88q0 43 -1 115t-1 100q0 61 2 109q2 127 87 210t214 83q25 0 74 4t74 4h2q27 0 51 -4q145 -23 252 -102q82 -61 128 -155.5t46 -199.5q0 -84 -31 -160q-6 -18 -6 -32q0 -18 12 -41q4 -6 31 -49t35 -58.5t26.5 -50.5t27.5 -62.5t16 -58.5q6 -29 6 -57 q0 -74 -35 -138.5t-96 -103.5q-72 -45 -154 -45q-98 0 -174 62q-23 18 -37 18t-33 -22q-80 -100 -213 -101q-47 0 -92 14q-82 27 -134 94.5t-60 153.5q-18 190 -19 385z" />
<glyph unicode="S" horiz-adv-x="1118" d="M51 965q0 129 109 247q137 150 356 224q111 37 129 41q29 6 60 6h4q117 0 199.5 -82t82.5 -203v-6q0 -94 -59 -168q-20 -27 4 -45q131 -100 131 -256q0 -109 -66 -215q-51 -80 -151 -156q-102 -80 -305 -207q-80 -51 -164 -51q-104 0 -183 68.5t-100 171.5q-4 23 -4 47 q0 82 62 170q29 43 77 76q31 20 -2 39q-27 16 -55 43q-125 115 -125 256z" />
<glyph unicode="T" horiz-adv-x="1202" d="M41 1163q0 119 100 207q84 74 195 74q14 0 29 -2q72 -6 143 -6q80 0 162 8q38 2 73 2h7q117 0 211 -33q100 -35 151 -111.5t51 -166.5q0 -96 -62.5 -171t-164.5 -102q-33 -8 -33 -41v-71q0 -158 -6 -375q-6 -123 -86 -207t-199 -84q-115 0 -197.5 83t-86.5 202v51v47v51 q-2 23 -2 49q0 37 5 116t5 120v24q0 23 -7 33t-30 12q-106 16 -173 82t-83 170q-2 20 -2 39z" />
<glyph unicode="U" horiz-adv-x="1185" d="M51 930v41q2 12 2 30q0 8 -1 28t-1 30q0 66 15 110q57 176 231 207q27 4 51 4q121 0 213 -106q8 -10 12.5 -13.5t10.5 -6.5t11 2.5t11 17.5q88 133 238 135q39 0 78 -10q92 -27 150 -101.5t63 -175.5q2 -18 2 -41q0 -47 -5.5 -100t-14.5 -119.5t-13 -99.5 q-23 -225 -60 -326q-55 -154 -167.5 -232.5t-266.5 -78.5q-51 0 -104 8q-170 29 -266.5 133.5t-145.5 278.5q-43 158 -43 385z" />
<glyph unicode="V" horiz-adv-x="1294" d="M39 1264q29 88 95.5 145t156.5 68q12 2 24 2h2q74 0 143.5 -44t108.5 -114q14 -27 25.5 -57.5t25 -70.5t23.5 -67q53 90 55 95q45 76 56 90q89 114 227 114h2q76 0 143 -39q66 -39 103 -104t37 -141q0 -63 -25 -121q-53 -119 -135 -238q-96 -139 -266 -460 q-57 -109 -90 -146q-47 -57 -106.5 -85t-123.5 -28q-76 0 -143.5 40t-112.5 116q-63 115 -98 330q-2 14 -15.5 99t-19.5 115t-18.5 94.5t-26.5 112.5t-31 97q-26 69 -26 123q0 39 10 74z" />
<glyph unicode="W" horiz-adv-x="1894" d="M39 1126q0 84 48 156t128 107q52 20 107 22h2q70 0 133 -32.5t102 -92.5q23 -31 35 -65.5t25.5 -90t17.5 -71.5q2 -4 25 -105q49 68 115.5 106t140.5 38q166 0 274 -178q74 168 98 254q49 180 211 223q35 10 72 10q111 0 193.5 -78t86.5 -188q2 -10 2 -19q0 -90 -43 -204 q-27 -72 -97 -242t-103 -264q-4 -16 -16.5 -57.5t-20.5 -63.5q-29 -80 -104.5 -134.5t-163.5 -54.5q-53 0 -101 21q-29 12 -51 12q-156 2 -260 139q-16 23 -28.5 23t-28.5 -23q-4 -6 -12.5 -16t-12.5 -14q-94 -129 -240 -129q-98 0 -182 56t-117 142q-6 16 -41.5 108.5 t-48 127.5t-35 103.5t-36.5 123.5q-23 98 -66 291q-8 29 -8 59z" />
<glyph unicode="X" horiz-adv-x="1304" d="M51 393q0 100 66 191q43 57 145 145q27 23 27 41q0 16 -21 39q-70 82 -116 160t-64 166q-8 31 -8 63q0 86 47 156.5t125 107.5q53 23 108 23h2q74 0 139.5 -38t100.5 -93q4 -6 57 -109q43 57 50 68q91 114 231 114h2q80 0 148.5 -42t105.5 -119q27 -59 27 -121 q0 -74 -39 -150q-47 -88 -115 -174q-18 -23 -18 -43q0 -18 20 -45q68 -78 123 -160q61 -88 61 -176q0 -63 -30 -125q-37 -78 -105.5 -119.5t-146.5 -41.5q-119 0 -205 86q-25 23 -84 102q-18 23 -37 2q-18 -18 -53 -51t-45 -43q-98 -96 -217 -96q-102 0 -185 71 q-96 84 -96 211z" />
<glyph unicode="Y" horiz-adv-x="1372" d="M41 1126q0 117 85 200t214 83q139 -4 229 -137q25 -35 36 -48.5t22 -13.5q16 0 67 47q94 84 170 146q87 67 187 67q115 0 200 -86q80 -82 80 -196q0 -104 -67 -191q-39 -49 -88 -86q-82 -63 -238 -231q-43 -45 -43 -102v-7q2 -43 2 -92q0 -41 -2 -110q-2 -127 -84 -211 t-201 -84h-20q-117 8 -191.5 93t-74.5 208v28q4 41 5 120t1 93q0 20 -21 48q-33 43 -93 119.5t-77 97.5q-82 104 -96 204q-2 20 -2 41z" />
<glyph unicode="Z" horiz-adv-x="1296" d="M51 399q0 74 37 142q43 80 121 137q35 25 64.5 57.5t65.5 80.5t52 67q8 10 8 16t-3 8t-12 5t-11 3q-168 76 -180 250v21q0 117 84.5 196.5t211.5 79.5h3q238 -20 362 -59q16 -4 98 -19q131 -20 219 -124q74 -88 74 -195q0 -127 -104 -217q-49 -43 -168 -172 q-16 -16 -17 -27q0 -12 27 -24q135 -57 172 -197q10 -35 10 -70q0 -115 -82 -198.5t-196 -83.5h-33q-127 16 -459 24q-111 4 -192 47q-72 41 -112 108t-40 144z" />
<glyph unicode="[" horiz-adv-x="950" d="M49 1350q0 119 62.5 202.5t150.5 83.5h19q96 -12 155 -12q45 0 91 9t77 9q43 0 113 -10q86 -12 145.5 -96t59.5 -190v-25q-8 -117 -71 -189.5t-153 -72.5q-10 0 -18 2q-25 2 -49 2q0 -25 -1 -90.5t-1 -104.5q2 -45 2 -98q0 -76 -4 -219q37 -2 92 -10q86 -10 145.5 -94.5 t59.5 -192.5v-25q-8 -115 -70.5 -187.5t-153.5 -72.5h-20q-25 2 -55 2q-25 0 -89.5 -3t-109.5 -3q-86 0 -176 10q-86 8 -142.5 90t-56.5 195q0 16 2 35q0 14 -2 41v125q0 104 5 313t5 313q0 49 -6 134.5t-6 128.5z" />
<glyph unicode="\" horiz-adv-x="1218" d="M51 1100q0 86 47 157.5t127 106.5q53 20 109 20q72 0 135 -35t104 -96q12 -20 48 -90q387 -725 469 -850q59 -94 73 -172q6 -25 6 -49q0 -115 -85 -198.5t-199 -83.5q-33 0 -66 8q-119 31 -190 143q-49 78 -116 181.5t-94.5 147.5t-73.5 124t-89 170t-106 225 q-6 18 -25 55t-28 58.5t-21.5 53.5t-18.5 60q-6 33 -6 64z" />
<glyph unicode="]" horiz-adv-x="950" d="M25 229v25q0 109 59 193t145 94q55 8 93 10q-4 143 -5 219q0 53 2 98q0 39 -1 104.5t-1 90.5q-27 0 -49 -2q-10 -2 -20 -2q-88 0 -150.5 72.5t-70.5 189.5q-2 12 -2 25q0 106 60 190t146 96q68 10 111 10q33 0 78 -9t92 -9q59 0 156 12h18q88 0 149.5 -84t61.5 -202 q0 -43 -5 -128t-5 -135q0 -104 5 -313t5 -313q0 -66 -2 -125v-41q2 -18 2 -35q0 -113 -56.5 -194.5t-142.5 -90.5q-92 -10 -176 -10q-45 0 -110.5 3t-89.5 3q-29 0 -56 -2h-18q-90 0 -152.5 73t-70.5 187z" />
<glyph unicode="^" horiz-adv-x="1392" d="M51 973q0 104 68 190q39 47 88 86q14 10 81.5 62.5t93.5 72t88 59.5t102 56.5t97.5 31.5t110.5 15q233 0 465 -266q78 -92 94 -205q2 -20 2 -41q0 -117 -85 -199.5t-214 -82.5q-137 4 -229 137q-25 35 -35 48t-22 13q-14 0 -68 -47q-92 -84 -170 -145q-86 -68 -186 -68 q-115 0 -199 86q-82 82 -82 197z" />
<glyph unicode="_" horiz-adv-x="1585" d="M51 37q0 119 82 203t197 84h24q45 -4 95 -5q6 0 251 13q295 12 363 12h8q104 0 193 -8q115 -12 193.5 -96t78.5 -193q0 -12 -2 -22q-10 -117 -93 -190t-200 -73q-12 0 -27 2q-78 4 -167 5q-57 0 -406 -15q-117 -6 -188 -6q-76 0 -140 6q-147 10 -221 133q-41 70 -41 150z " />
<glyph unicode="`" horiz-adv-x="909" d="M51 1223q0 100 51 180q6 6 11 14q47 72 118.5 111t151.5 39q113 0 205 -72q172 -131 227 -338q2 -6 16.5 -57t20.5 -78q8 -33 8 -66q0 -88 -49 -159.5t-133 -104.5q-51 -20 -105 -20q-74 0 -140 39t-105 108q-31 55 -99 96q-88 53 -133 135.5t-45 172.5z" />
<glyph unicode="a" horiz-adv-x="1263" d="M41 373v22q0 20 2 41t9 46.5t10.5 37.5t14.5 45l13 39q43 135 147.5 383t120.5 291q37 94 48 113q84 145 272 145q74 0 138 -46t99 -128q207 -469 295 -797q14 -51 15 -102q0 -106 -60.5 -183t-165.5 -100q-33 -6 -63 -6q-127 0 -219 115q-27 35 -64 35q-45 0 -65 -45 q-39 -80 -107.5 -124t-152.5 -44q-25 0 -49 4q-96 16 -163 88.5t-75 169.5z" />
<glyph unicode="b" horiz-adv-x="1028" d="M51 1237q0 117 82 200t215 83h2q14 0 29 -2h18q72 0 166 -19q127 -27 204 -123t77 -215q0 -117 -74 -215q-16 -23 -16 -35q0 -14 30 -34q82 -51 137.5 -142.5t55.5 -197.5q0 -72 -27 -142q-66 -180 -284 -233q-55 -14 -109 -15q-68 -2 -164 -22q-20 -4 -43 -4 q-100 0 -183 79t-89 183q-18 362 -19 618v29v33q0 86 -6 139q-2 16 -2 35z" />
<glyph unicode="c" horiz-adv-x="1046" d="M37 723q0 166 37 270q125 352 461 471q66 23 133 23q53 0 104 -14q100 -27 159.5 -103t59.5 -176q0 -6 -2 -12q-4 -100 -69.5 -174t-171.5 -95q-63 -12 -100.5 -56t-37.5 -105q0 -20 4 -41q0 -6 3.5 -10.5t7.5 -5.5t7 -1t8 1t7 1q31 4 55 4q45 0 84 -12 q94 -29 152.5 -103.5t58.5 -170.5v-4q-2 -98 -61 -173t-158 -100q-72 -18 -141 -18h-14q-195 2 -322 74q-256 147 -262 440q-2 61 -2 90z" />
<glyph unicode="d" horiz-adv-x="1052" d="M51 446q0 84 12 232q4 43 5.5 91t1.5 102.5t2 82.5v61v56q0 35 -2 62v18q0 154 96 238t244 84h2q20 0 39 -3q203 -16 364 -182q201 -203 201 -444v-29q-4 -84 -31 -149q-129 -309 -377 -467q-39 -25 -65 -49q-90 -84 -195 -84q-55 0 -115 24q-164 68 -178 264 q-4 43 -4 92z" />
<glyph unicode="e" horiz-adv-x="980" d="M51 1178q0 111 104.5 226.5t206.5 119.5q45 2 82 2h7q135 0 233 -23q190 -45 219 -235q4 -27 4 -49q0 -154 -143 -240q-16 -10 -19.5 -19.5t5.5 -27.5q43 -70 43 -144q0 -66 -35 -131q-14 -29 12 -45q78 -43 120 -108.5t42 -138.5q0 -37 -10 -74q-27 -100 -104 -157.5 t-189 -59.5q-227 -4 -248 -4h-14q-104 0 -184.5 70.5t-94.5 176.5q-18 129 -18 246v31v63q0 102 -9.5 272.5t-9.5 248.5z" />
<glyph unicode="f" horiz-adv-x="1089" d="M51 690q0 254 10 447v16q0 16 -2 49t-2 49q0 41 9 72q31 98 105.5 155.5t168.5 57.5q49 0 98 -16q33 -12 72 -13h6q94 2 148 2h88q115 -4 193.5 -73.5t90.5 -178.5q4 -18 4 -34q0 -98 -60 -173t-161 -104q-4 0 -63 -16q-2 -6 0 -12.5t7 -13.5t7 -9q31 -63 31 -133 q0 -74 -36 -138.5t-101 -103.5q-35 -20 -35 -57v-4v-56q0 -37 -2 -71q-6 -123 -87 -203t-198 -80h-2q-119 2 -202 86t-85 205q-2 250 -2 350z" />
<glyph unicode="g" horiz-adv-x="1302" d="M35 791q0 354 366 628q105 80 238 80q25 0 47 -2q102 -10 172 -83t84 -179q2 -12 2 -25q0 -80 -53 -154.5t-133 -107.5q-154 -61 -154 -221q0 -8 2 -18q0 -25 8 -43q14 -39 41 -39h4q12 2 16.5 8t3.5 19.5t-1 15.5q18 117 98 188.5t191 71.5h18q113 -6 187.5 -88 t78.5 -205q2 -23 2 -47q0 -86 -12 -191q-12 -113 -89 -187.5t-191 -80.5q-33 -2 -66 -22q-113 -70 -266 -70q-203 0 -338 125q-193 178 -238 358q-16 72 -16 176v43q-2 25 -2 50z" />
<glyph unicode="h" horiz-adv-x="1353" d="M51 1208q0 106 65.5 188.5t168.5 100.5q27 4 53 4q104 0 182 -67.5t101 -178.5q10 -51 12 -217q0 -20 19.5 -37.5t41.5 -17.5q10 0 19 6q6 2 8 6t1 13l-1 8q6 117 10 213q4 117 81 196.5t189 83.5h9h2q115 0 194.5 -73.5t91.5 -188.5q6 -45 7 -76q0 -25 -5 -47 q-10 -117 -10 -307v-62v-63q0 -217 -8 -334q-8 -125 -88 -207.5t-197 -82.5h-4q-119 4 -198.5 87t-79.5 207q-2 27 -12.5 38.5t-34.5 13.5q-27 2 -27 -23v-18q0 -51 -8 -90q-23 -96 -101.5 -160t-173.5 -64q-14 0 -26 2q-111 10 -184.5 89t-73.5 188q0 96 -5.5 290.5 t-5.5 295.5v102v14q0 57 -8 121q-4 23 -4 47z" />
<glyph unicode="i" horiz-adv-x="679" d="M51 336v125q0 104 5 313t5 313q0 16 -2 50t-2 53q0 39 9 67q31 100 104.5 158t169.5 60q20 0 41 -2q104 -12 174 -91t74 -190q2 -49 2 -115q0 -31 -1 -99.5t-1 -109.5q2 -45 2 -98q0 -76 -5 -230.5t-8 -224.5q0 -109 -69.5 -186.5t-177.5 -91.5q-18 -4 -39 -4 q-88 0 -163 54t-103 140q-12 37 -15 109z" />
<glyph unicode="j" horiz-adv-x="851" d="M27 295v24q0 82 42 150t115 102q43 20 43 68v2q-2 82 -2 186q0 49 1 146.5t1 144.5q0 33 -2 62q0 84 31 147q37 76 105.5 120t152.5 44q26 0 53 -4q98 -18 164 -95t70 -182q2 -27 2 -63v-51v-52q-6 -78 -6 -204v-40v-42q0 -193 -13 -303q-35 -315 -313 -404 q-68 -20 -131 -20q-59 0 -115 16q-84 27 -137 94.5t-61 153.5z" />
<glyph unicode="k" horiz-adv-x="1304" d="M51 367q0 76 12 206q4 53 7 86q0 78 3 285t5 320q2 119 74.5 199.5t185.5 95.5q15 2 31 2q92 0 167.5 -60.5t104.5 -159.5q2 -2 3 -11t4 -13t9 -4q6 -2 10.5 1t8.5 10t6 9q6 6 24.5 28.5t30.5 33.5q88 86 205 86q96 0 174 -60q109 -86 109 -223q0 -78 -41 -149 q-33 -57 -137 -177q-16 -18 -17 -36q0 -14 10 -35q20 -45 92 -158t99 -182q24 -61 24 -118q0 -68 -30 -128q-78 -150 -242 -158h-16q-164 0 -250 152q-8 12 -23.5 43t-30 54.5t-32.5 43.5q-10 -88 -15 -104q-37 -137 -161 -197q-53 -24 -109 -24h-4q-12 0 -25 2 q-72 6 -131 44t-94 99t-39 135q-2 29 -2 62z" />
<glyph unicode="l" horiz-adv-x="1005" d="M51 360v54q0 219 15 417q2 31 2 68q0 41 -4.5 125t-4.5 127v45q4 80 9 94q20 100 99 164t177 64q13 0 27 -2q106 -10 180 -88t78 -187q0 -20 3 -77.5t5 -88.5q2 -80 2 -145q0 -129 -8 -244q-4 -29 26 -29q35 -2 78 -8q102 -18 172 -98t70 -182v-7q-4 -111 -79 -190.5 t-183 -85.5q-33 -2 -297 -33q-23 -2 -45 -2q-168 0 -279 160q-43 59 -43 149z" />
<glyph unicode="m" horiz-adv-x="1527" d="M51 817q0 61 2 264q0 147 85 232.5t235 87.5h10q152 0 258 -94q14 -12 60.5 -51t70 -62t45.5 -2q84 74 121 102q111 78 221 78q45 0 88 -10q98 -27 155.5 -105.5t57.5 -181.5v-6q-2 -70 -2 -147q0 -145 4 -381q2 -23 9.5 -67t7.5 -66v-11q-6 -113 -79 -191.5t-179 -86.5 q-12 -2 -25 -2q-106 0 -185 66.5t-100 172.5q0 2 -28 174q-84 -31 -105 -36q-33 -8 -53 -9q-23 0 -43 9q-14 6 -25 6q-23 0 -22 -31q0 -6 2 -14q2 -16 2 -37q0 -16 -2 -51q-6 -113 -84 -191t-191 -84h-12q-102 0 -184 72t-94 178q-16 127 -19 254q-2 98 -2 221z" />
<glyph unicode="n" horiz-adv-x="1415" d="M51 1120q0 66 17 117q29 94 105.5 148.5t174.5 54.5h6q23 0 47 -4q207 -31 344 -207l52 -62q8 2 12 8.5t6 15.5t4 11q33 78 107.5 129t152.5 51q16 0 33 -2q115 -20 183.5 -97t68.5 -183q0 -45 1 -136.5t1 -136.5q0 -233 -18 -389q0 -12 -4.5 -41.5t-6.5 -44.5 q-12 -125 -93 -199.5t-193 -74.5q-70 0 -140 33q-119 53 -198 180q-6 10 -72 119q-2 -20 -4 -51t-5 -53.5t-7 -43.5q-29 -98 -105 -156.5t-174 -58.5h-29q-102 10 -175.5 86t-78.5 182q-4 84 -4 158q0 96 7 184q4 47 4 101q0 61 -15 270q-4 63 -4 92z" />
<glyph unicode="o" horiz-adv-x="1247" d="M41 801q0 14 2 28v15q0 162 78 283.5t221 220.5q70 47 170 51q24 2 49 2q250 -2 447 -121q198 -122 198 -363q0 -41 -4 -79q-55 -440 -389 -660q-88 -57 -176 -57q-45 0 -90 14q-387 117 -481 518q-25 104 -25 148z" />
<glyph unicode="p" horiz-adv-x="1093" d="M51 774q0 45 2 86v98.5v90.5v108q2 88 53.5 157.5t135.5 102.5q114 45 237 45h6q111 0 234 -35q154 -43 244 -162.5t98 -283.5v-27q0 -178 -99.5 -308t-275.5 -185q-49 -16 -49 -58v-10q2 -20 2 -41q0 -47 -10 -90q-20 -96 -94 -158.5t-170 -64.5h-11q-96 0 -170.5 54 t-103.5 147q-18 55 -19 88q0 6 1 18t1 19q0 72 -6 209t-6 200z" />
<glyph unicode="q" horiz-adv-x="1202" d="M39 659q0 307 237 558q164 172 365 172h2q84 0 164 -31q158 -63 252 -200.5t94 -307.5v-21q0 -123 -76 -268q-14 -27 -14 -49q0 -16 10 -37q23 -51 23 -106q0 -66 -31 -124.5t-74 -92.5q-82 -68 -178 -68q-82 0 -160 49q-29 18 -61 19h-1h-3q-217 0 -420 174 q-117 104 -127 288q-2 23 -2 45z" />
<glyph unicode="r" horiz-adv-x="1146" d="M51 739q0 45 2 88q0 43 -1 115t-1 100q0 61 2 109q2 127 87 210t214 83q25 0 74 4t74 4h2q27 0 51 -4q145 -23 252 -102q82 -61 128 -155.5t46 -199.5q0 -84 -31 -160q-6 -18 -6 -32q0 -18 12 -41q4 -6 31 -49t35 -58.5t26.5 -50.5t27.5 -62.5t16 -58.5q6 -29 6 -57 q0 -74 -35 -138.5t-96 -103.5q-72 -45 -154 -45q-98 0 -174 62q-23 18 -37 18t-33 -22q-80 -100 -213 -101q-47 0 -92 14q-82 27 -134 94.5t-60 153.5q-18 190 -19 385z" />
<glyph unicode="s" horiz-adv-x="1118" d="M51 965q0 129 109 247q137 150 356 224q111 37 129 41q29 6 60 6h4q117 0 199.5 -82t82.5 -203v-6q0 -94 -59 -168q-20 -27 4 -45q131 -100 131 -256q0 -109 -66 -215q-51 -80 -151 -156q-102 -80 -305 -207q-80 -51 -164 -51q-104 0 -183 68.5t-100 171.5q-4 23 -4 47 q0 82 62 170q29 43 77 76q31 20 -2 39q-27 16 -55 43q-125 115 -125 256z" />
<glyph unicode="t" horiz-adv-x="1202" d="M41 1163q0 119 100 207q84 74 195 74q14 0 29 -2q72 -6 143 -6q80 0 162 8q38 2 73 2h7q117 0 211 -33q100 -35 151 -111.5t51 -166.5q0 -96 -62.5 -171t-164.5 -102q-33 -8 -33 -41v-71q0 -158 -6 -375q-6 -123 -86 -207t-199 -84q-115 0 -197.5 83t-86.5 202v51v47v51 q-2 23 -2 49q0 37 5 116t5 120v24q0 23 -7 33t-30 12q-106 16 -173 82t-83 170q-2 20 -2 39z" />
<glyph unicode="u" horiz-adv-x="1185" d="M51 930v41q2 12 2 30q0 8 -1 28t-1 30q0 66 15 110q57 176 231 207q27 4 51 4q121 0 213 -106q8 -10 12.5 -13.5t10.5 -6.5t11 2.5t11 17.5q88 133 238 135q39 0 78 -10q92 -27 150 -101.5t63 -175.5q2 -18 2 -41q0 -47 -5.5 -100t-14.5 -119.5t-13 -99.5 q-23 -225 -60 -326q-55 -154 -167.5 -232.5t-266.5 -78.5q-51 0 -104 8q-170 29 -266.5 133.5t-145.5 278.5q-43 158 -43 385z" />
<glyph unicode="v" horiz-adv-x="1294" d="M39 1264q29 88 95.5 145t156.5 68q12 2 24 2h2q74 0 143.5 -44t108.5 -114q14 -27 25.5 -57.5t25 -70.5t23.5 -67q53 90 55 95q45 76 56 90q89 114 227 114h2q76 0 143 -39q66 -39 103 -104t37 -141q0 -63 -25 -121q-53 -119 -135 -238q-96 -139 -266 -460 q-57 -109 -90 -146q-47 -57 -106.5 -85t-123.5 -28q-76 0 -143.5 40t-112.5 116q-63 115 -98 330q-2 14 -15.5 99t-19.5 115t-18.5 94.5t-26.5 112.5t-31 97q-26 69 -26 123q0 39 10 74z" />
<glyph unicode="w" horiz-adv-x="1894" d="M39 1126q0 84 48 156t128 107q52 20 107 22h2q70 0 133 -32.5t102 -92.5q23 -31 35 -65.5t25.5 -90t17.5 -71.5q2 -4 25 -105q49 68 115.5 106t140.5 38q166 0 274 -178q74 168 98 254q49 180 211 223q35 10 72 10q111 0 193.5 -78t86.5 -188q2 -10 2 -19q0 -90 -43 -204 q-27 -72 -97 -242t-103 -264q-4 -16 -16.5 -57.5t-20.5 -63.5q-29 -80 -104.5 -134.5t-163.5 -54.5q-53 0 -101 21q-29 12 -51 12q-156 2 -260 139q-16 23 -28.5 23t-28.5 -23q-4 -6 -12.5 -16t-12.5 -14q-94 -129 -240 -129q-98 0 -182 56t-117 142q-6 16 -41.5 108.5 t-48 127.5t-35 103.5t-36.5 123.5q-23 98 -66 291q-8 29 -8 59z" />
<glyph unicode="x" horiz-adv-x="1304" d="M51 393q0 100 66 191q43 57 145 145q27 23 27 41q0 16 -21 39q-70 82 -116 160t-64 166q-8 31 -8 63q0 86 47 156.5t125 107.5q53 23 108 23h2q74 0 139.5 -38t100.5 -93q4 -6 57 -109q43 57 50 68q91 114 231 114h2q80 0 148.5 -42t105.5 -119q27 -59 27 -121 q0 -74 -39 -150q-47 -88 -115 -174q-18 -23 -18 -43q0 -18 20 -45q68 -78 123 -160q61 -88 61 -176q0 -63 -30 -125q-37 -78 -105.5 -119.5t-146.5 -41.5q-119 0 -205 86q-25 23 -84 102q-18 23 -37 2q-18 -18 -53 -51t-45 -43q-98 -96 -217 -96q-102 0 -185 71 q-96 84 -96 211z" />
<glyph unicode="y" horiz-adv-x="1372" d="M41 1126q0 117 85 200t214 83q139 -4 229 -137q25 -35 36 -48.5t22 -13.5q16 0 67 47q94 84 170 146q87 67 187 67q115 0 200 -86q80 -82 80 -196q0 -104 -67 -191q-39 -49 -88 -86q-82 -63 -238 -231q-43 -45 -43 -102v-7q2 -43 2 -92q0 -41 -2 -110q-2 -127 -84 -211 t-201 -84h-20q-117 8 -191.5 93t-74.5 208v28q4 41 5 120t1 93q0 20 -21 48q-33 43 -93 119.5t-77 97.5q-82 104 -96 204q-2 20 -2 41z" />
<glyph unicode="z" horiz-adv-x="1296" d="M51 399q0 74 37 142q43 80 121 137q35 25 64.5 57.5t65.5 80.5t52 67q8 10 8 16t-3 8t-12 5t-11 3q-168 76 -180 250v21q0 117 84.5 196.5t211.5 79.5h3q238 -20 362 -59q16 -4 98 -19q131 -20 219 -124q74 -88 74 -195q0 -127 -104 -217q-49 -43 -168 -172 q-16 -16 -17 -27q0 -12 27 -24q135 -57 172 -197q10 -35 10 -70q0 -115 -82 -198.5t-196 -83.5h-33q-127 16 -459 24q-111 4 -192 47q-72 41 -112 108t-40 144z" />
<glyph unicode="{" horiz-adv-x="1003" d="M43 821q0 57 43 105.5t123 68.5q43 10 43 37q-2 45 -2 84q0 14 1 65.5t1 96.5q0 27 -2 55q0 86 31 152q39 80 168 127t272 47q117 0 192.5 -32t75.5 -91q0 -72 -125 -170q-35 -27 -35 -131q0 -209 -20 -303q-12 -63 -61 -111q45 -45 57 -106q20 -94 20 -303 q0 -104 35 -131q125 -98 125 -172q0 -39 -37 -67t-96 -41t-135 -13q-143 0 -272.5 46t-168.5 128q-31 66 -30 151q2 29 2 56q0 45 -1 95t-1 66q0 39 2 84q0 25 -43 37q-78 18 -120 65.5t-42 104.5z" />
<glyph unicode="|" horiz-adv-x="679" d="M51 270v144q0 137 5 436t5 397q0 16 -2 50t-2 53q0 39 9 67q31 100 104.5 157.5t169.5 59.5q20 0 41 -2q104 -12 174 -92t74 -188v-68q0 -39 -1 -140.5t-1 -152.5q0 -78 2 -123t2 -104q0 -88 -5 -269.5t-8 -242.5q0 -111 -69.5 -187.5t-177.5 -93.5q-18 -2 -39 -2 q-88 0 -163 53.5t-103 139.5q-12 37 -15 108z" />
<glyph unicode="}" horiz-adv-x="1003" d="M14 86q0 72 125 170q35 27 35 131q0 209 21 303q12 63 61 111q-45 45 -57 106q-20 94 -21 303q0 104 -35 131q-125 98 -125 172q0 57 76 89t193 32q143 0 272 -46t168 -128q31 -66 31 -151q-2 -29 -2 -56q0 -45 1 -95t1 -66q0 -39 -2 -84q0 -25 43 -37q78 -18 120 -65.5 t42 -104.5t-43.5 -105.5t-122.5 -68.5q-43 -10 -43 -37q2 -45 2 -84q0 -14 -1 -65.5t-1 -96.5q0 -27 2 -55q0 -86 -31 -152q-39 -80 -168 -127t-272 -47q-117 0 -193 32t-76 91z" />
<glyph unicode="~" horiz-adv-x="1710" d="M43 641q0 84 55 156q31 39 72 69q12 10 66.5 53.5t76 58.5t72.5 48t84 46t80 25.5t90 12.5q45 0 114.5 -48t128 -105.5t122 -105.5t96.5 -48q12 0 55 39q78 68 139 119q72 55 154 55q94 0 164 -70q66 -68 65 -162q0 -86 -55 -155q-31 -39 -72 -72q-12 -8 -66 -51 t-76 -58.5t-73 -48t-83.5 -47t-80 -27t-90.5 -12.5q-94 0 -215 72t-198 186q-35 49 -47 50q-12 0 -56 -37q-78 -70 -139 -119q-72 -55 -154 -55q-94 0 -163 69q-66 68 -66 162z" />
<glyph unicode="&#xad;" d="M51 748q0 14 2 30q10 106 96 179t197 73h23q33 -2 419 -14q94 -2 165 -51.5t106 -130.5q18 -49 18 -101q0 -100 -65.5 -181t-163.5 -99q-6 0 -121 -15q-74 10 -211 11.5t-201 7.5q-117 12 -190.5 94t-73.5 197z" />
<glyph unicode="&#x2000;" horiz-adv-x="829" />
<glyph unicode="&#x2001;" horiz-adv-x="1659" />
<glyph unicode="&#x2002;" horiz-adv-x="829" />
<glyph unicode="&#x2003;" horiz-adv-x="1659" />
<glyph unicode="&#x2004;" horiz-adv-x="553" />
<glyph unicode="&#x2005;" horiz-adv-x="414" />
<glyph unicode="&#x2006;" horiz-adv-x="276" />
<glyph unicode="&#x2007;" horiz-adv-x="276" />
<glyph unicode="&#x2008;" horiz-adv-x="207" />
<glyph unicode="&#x2009;" horiz-adv-x="331" />
<glyph unicode="&#x200a;" horiz-adv-x="92" />
<glyph unicode="&#x2010;" d="M51 748q0 14 2 30q10 106 96 179t197 73h23q33 -2 419 -14q94 -2 165 -51.5t106 -130.5q18 -49 18 -101q0 -100 -65.5 -181t-163.5 -99q-6 0 -121 -15q-74 10 -211 11.5t-201 7.5q-117 12 -190.5 94t-73.5 197z" />
<glyph unicode="&#x2011;" d="M51 748q0 14 2 30q10 106 96 179t197 73h23q33 -2 419 -14q94 -2 165 -51.5t106 -130.5q18 -49 18 -101q0 -100 -65.5 -181t-163.5 -99q-6 0 -121 -15q-74 10 -211 11.5t-201 7.5q-117 12 -190.5 94t-73.5 197z" />
<glyph unicode="&#x2012;" d="M51 748q0 14 2 30q10 106 96 179t197 73h23q33 -2 419 -14q94 -2 165 -51.5t106 -130.5q18 -49 18 -101q0 -100 -65.5 -181t-163.5 -99q-6 0 -121 -15q-74 10 -211 11.5t-201 7.5q-117 12 -190.5 94t-73.5 197z" />
<glyph unicode="&#x2013;" horiz-adv-x="1126" d="M51 748q0 14 2 30q10 106 96 179t196 73h23q33 -2 419 -14q93 -2 164 -51.5t106 -130.5q18 -49 18 -101q0 -100 -65.5 -181t-163.5 -99q-6 0 -120 -15q-74 10 -211 11.5t-201 7.5q-116 12 -189.5 94t-73.5 197z" />
<glyph unicode="&#x2014;" horiz-adv-x="2150" d="M51 748q0 14 4 30q20 106 191.5 179t393.5 73h46q66 -2 836 -14q188 -2 329.5 -51.5t211.5 -130.5q36 -49 36 -101q0 -100 -130.5 -181t-326.5 -99q-12 0 -242 -15q-147 10 -420.5 11.5t-401.5 7.5q-234 12 -380.5 94t-146.5 197z" />
<glyph unicode="&#x202f;" horiz-adv-x="331" />
<glyph unicode="&#x205f;" horiz-adv-x="414" />
<glyph unicode="&#x25fc;" horiz-adv-x="1484" d="M0 0v1485h1485v-1485h-1485z" />
</font>
</defs>
</svg>
